<svg version="1.1" xmlns="http://www.w3.org/2000/svg" xmlns:xlink="http://www.w3.org/1999/xlink" width="843.76513671875" height="676"><defs/>
   <g>
      <g transform="translate(-174,-30) scale(1,1)"><rect fill="#C0C0C0" stroke="none" x="510" y="303" width="182.7607421875" height="128" opacity="0.2"/></g>
      <g transform="translate(-174,-30) scale(1,1)"><rect fill="#ffffff" stroke="none" x="503" y="296" width="182.7607421875" height="128"/></g>
      <g transform="translate(-174,-30) scale(1,1)"><path fill="none" stroke="#000000" d="M 503 296 L 685.7607421875 296 L 685.7607421875 424 L 503 424 L 503 296 Z Z" stroke-miterlimit="10"/></g>
      <g transform="translate(-174,-30) scale(1,1)"><path fill="none" stroke="#000000" d="M 503 321 L 685.7607421875 321" stroke-miterlimit="10"/></g>
      <g transform="translate(-174,-30) scale(1,1)"><path fill="none" stroke="#000000" d="M 503 374 L 685.7607421875 374" stroke-miterlimit="10"/></g>
      <g transform="translate(-174,-30) scale(1,1)">
         <g><path fill="none" stroke="none"/>
            <text fill="#000000" stroke="none" font-family="Arial" font-size="13px" font-style="normal" font-weight="bold" text-decoration="none" x="582.45947265625" y="315.5">Part</text>
         </g>
      </g>
      <g transform="translate(-174,-30) scale(1,1)">
         <g><path fill="none" stroke="none"/>
            <text fill="#000000" stroke="none" font-family="Arial" font-size="13px" font-style="normal" font-weight="normal" text-decoration="none" x="508" y="338.5">#brand: String</text>
         </g>
      </g>
      <g transform="translate(-174,-30) scale(1,1)">
         <g><path fill="none" stroke="none"/>
            <text fill="#000000" stroke="none" font-family="Arial" font-size="13px" font-style="normal" font-weight="normal" text-decoration="none" x="508" y="353.5">#type: String</text>
         </g>
      </g>
      <g transform="translate(-174,-30) scale(1,1)">
         <g><path fill="none" stroke="none"/>
            <text fill="#000000" stroke="none" font-family="Arial" font-size="13px" font-style="normal" font-weight="normal" text-decoration="none" x="508" y="368.5">#price: int</text>
         </g>
      </g>
      <g transform="translate(-174,-30) scale(1,1)">
         <g><path fill="none" stroke="none"/>
            <text fill="#000000" stroke="none" font-family="Arial" font-size="13px" font-style="italic" font-weight="normal" text-decoration="none" x="508" y="391.5">+print(os: std::ostream&amp;): void</text>
         </g>
      </g>
      <g transform="translate(-174,-30) scale(1,1)"><rect fill="#C0C0C0" stroke="none" x="191" y="495" width="182.7607421875" height="115" opacity="0.2"/></g>
      <g transform="translate(-174,-30) scale(1,1)"><rect fill="#ffffff" stroke="none" x="184" y="488" width="182.7607421875" height="115"/></g>
      <g transform="translate(-174,-30) scale(1,1)"><path fill="none" stroke="#000000" d="M 184 488 L 366.7607421875 488 L 366.7607421875 603 L 184 603 L 184 488 Z Z" stroke-miterlimit="10"/></g>
      <g transform="translate(-174,-30) scale(1,1)"><path fill="none" stroke="#000000" d="M 184 513 L 366.7607421875 513" stroke-miterlimit="10"/></g>
      <g transform="translate(-174,-30) scale(1,1)"><path fill="none" stroke="#000000" d="M 184 581 L 366.7607421875 581" stroke-miterlimit="10"/></g>
      <g transform="translate(-174,-30) scale(1,1)">
         <g><path fill="none" stroke="none"/>
            <text fill="#000000" stroke="none" font-family="Arial" font-size="13px" font-style="normal" font-weight="bold" text-decoration="none" x="261.65673828125" y="507.5">CPU</text>
         </g>
      </g>
      <g transform="translate(-174,-30) scale(1,1)">
         <g><path fill="none" stroke="none"/>
            <text fill="#000000" stroke="none" font-family="Arial" font-size="13px" font-style="normal" font-weight="normal" text-decoration="none" x="189" y="530.5">-Socket: String</text>
         </g>
      </g>
      <g transform="translate(-174,-30) scale(1,1)">
         <g><path fill="none" stroke="none"/>
            <text fill="#000000" stroke="none" font-family="Arial" font-size="13px" font-style="normal" font-weight="normal" text-decoration="none" x="189" y="545.5">-clk: int</text>
         </g>
      </g>
      <g transform="translate(-174,-30) scale(1,1)">
         <g><path fill="none" stroke="none"/>
            <text fill="#000000" stroke="none" font-family="Arial" font-size="13px" font-style="normal" font-weight="normal" text-decoration="none" x="189" y="560.5">-cores: int</text>
         </g>
      </g>
      <g transform="translate(-174,-30) scale(1,1)">
         <g><path fill="none" stroke="none"/>
            <text fill="#000000" stroke="none" font-family="Arial" font-size="13px" font-style="normal" font-weight="normal" text-decoration="none" x="189" y="575.5">-multithreading: bool</text>
         </g>
      </g>
      <g transform="translate(-174,-30) scale(1,1)">
         <g><path fill="none" stroke="none"/>
            <text fill="#000000" stroke="none" font-family="Arial" font-size="13px" font-style="normal" font-weight="normal" text-decoration="none" x="189" y="598.5">+print(os: std::ostream&amp;): void</text>
         </g>
      </g>
      <g transform="translate(-174,-30) scale(1,1)"><path fill="none" stroke="#000000" d="M 288 488 L 288 368 M 288 368 A 8 8 0 0 1 296 360 L 503 360" stroke-miterlimit="10"/></g>
      <g transform="translate(-174,-30) scale(1,1)"><path fill="#FFFFFF" stroke="none" d="M 482.6746502847517 368.419035512032 L 503 360 L 482.6746502847517 351.580964487968"/></g>
      <g transform="translate(-174,-30) scale(1,1)"><path fill="none" stroke="#000000" d="M 482.6746502847517 368.419035512032 L 503 360 L 482.6746502847517 351.580964487968 L 482.6746502847517 368.419035512032" stroke-miterlimit="10"/></g>
      <g transform="translate(-174,-30) scale(1,1)"><rect fill="#C0C0C0" stroke="none" x="397" y="495" width="50.919921875" height="44" opacity="0.2"/></g>
      <g transform="translate(-174,-30) scale(1,1)"><rect fill="#ffffff" stroke="none" x="390" y="488" width="50.919921875" height="44"/></g>
      <g transform="translate(-174,-30) scale(1,1)"><path fill="none" stroke="#000000" d="M 390 488 L 440.919921875 488 L 440.919921875 532 L 390 532 L 390 488 Z Z" stroke-miterlimit="10"/></g>
      <g transform="translate(-174,-30) scale(1,1)"><path fill="none" stroke="#000000" d="M 390 513 L 440.919921875 513" stroke-miterlimit="10"/></g>
      <g transform="translate(-174,-30) scale(1,1)"><path fill="none" stroke="#000000" d="M 390 523 L 440.919921875 523" stroke-miterlimit="10"/></g>
      <g transform="translate(-174,-30) scale(1,1)">
         <g><path fill="none" stroke="none"/>
            <text fill="#000000" stroke="none" font-family="Arial" font-size="13px" font-style="normal" font-weight="bold" text-decoration="none" x="401.37451171875" y="507.5">GPU</text>
         </g>
      </g>
      <g transform="translate(-174,-30) scale(1,1)"><path fill="none" stroke="#000000" d="M 408 488 L 408 392 M 408 392 A 8 8 0 0 1 416 384 L 503 384" stroke-miterlimit="10"/></g>
      <g transform="translate(-174,-30) scale(1,1)"><path fill="#FFFFFF" stroke="none" d="M 482.6746502847517 392.419035512032 L 503 384 L 482.6746502847517 375.580964487968"/></g>
      <g transform="translate(-174,-30) scale(1,1)"><path fill="none" stroke="#000000" d="M 482.6746502847517 392.419035512032 L 503 384 L 482.6746502847517 375.580964487968 L 482.6746502847517 392.419035512032" stroke-miterlimit="10"/></g>
      <g transform="translate(-174,-30) scale(1,1)"><rect fill="#C0C0C0" stroke="none" x="471" y="495" width="50.919921875" height="44" opacity="0.2"/></g>
      <g transform="translate(-174,-30) scale(1,1)"><rect fill="#ffffff" stroke="none" x="464" y="488" width="50.919921875" height="44"/></g>
      <g transform="translate(-174,-30) scale(1,1)"><path fill="none" stroke="#000000" d="M 464 488 L 514.919921875 488 L 514.919921875 532 L 464 532 L 464 488 Z Z" stroke-miterlimit="10"/></g>
      <g transform="translate(-174,-30) scale(1,1)"><path fill="none" stroke="#000000" d="M 464 513 L 514.919921875 513" stroke-miterlimit="10"/></g>
      <g transform="translate(-174,-30) scale(1,1)"><path fill="none" stroke="#000000" d="M 464 523 L 514.919921875 523" stroke-miterlimit="10"/></g>
      <g transform="translate(-174,-30) scale(1,1)">
         <g><path fill="none" stroke="none"/>
            <text fill="#000000" stroke="none" font-family="Arial" font-size="13px" font-style="normal" font-weight="bold" text-decoration="none" x="469.59814453125" y="507.5">MOBO</text>
         </g>
      </g>
      <g transform="translate(-174,-30) scale(1,1)"><path fill="none" stroke="#000000" d="M 472 488 L 472 416 M 472 416 A 8 8 0 0 1 480 408 L 503 408" stroke-miterlimit="10"/></g>
      <g transform="translate(-174,-30) scale(1,1)"><path fill="#FFFFFF" stroke="none" d="M 482.6746502847517 416.419035512032 L 503 408 L 482.6746502847517 399.580964487968"/></g>
      <g transform="translate(-174,-30) scale(1,1)"><path fill="none" stroke="#000000" d="M 482.6746502847517 416.419035512032 L 503 408 L 482.6746502847517 399.580964487968 L 482.6746502847517 416.419035512032" stroke-miterlimit="10"/></g>
      <g transform="translate(-174,-30) scale(1,1)"><rect fill="#C0C0C0" stroke="none" x="545" y="495" width="50.919921875" height="44" opacity="0.2"/></g>
      <g transform="translate(-174,-30) scale(1,1)"><rect fill="#ffffff" stroke="none" x="538" y="488" width="50.919921875" height="44"/></g>
      <g transform="translate(-174,-30) scale(1,1)"><path fill="none" stroke="#000000" d="M 538 488 L 588.919921875 488 L 588.919921875 532 L 538 532 L 538 488 Z Z" stroke-miterlimit="10"/></g>
      <g transform="translate(-174,-30) scale(1,1)"><path fill="none" stroke="#000000" d="M 538 513 L 588.919921875 513" stroke-miterlimit="10"/></g>
      <g transform="translate(-174,-30) scale(1,1)"><path fill="none" stroke="#000000" d="M 538 523 L 588.919921875 523" stroke-miterlimit="10"/></g>
      <g transform="translate(-174,-30) scale(1,1)">
         <g><path fill="none" stroke="none"/>
            <text fill="#000000" stroke="none" font-family="Arial" font-size="13px" font-style="normal" font-weight="bold" text-decoration="none" x="549.015869140625" y="507.5">RAM</text>
         </g>
      </g>
      <g transform="translate(-174,-30) scale(1,1)"><path fill="none" stroke="#000000" d="M 552 488 L 552 424" stroke-miterlimit="10"/></g>
      <g transform="translate(-174,-30) scale(1,1)"><path fill="#FFFFFF" stroke="none" d="M 560.419035512032 444.3253497152483 L 552 424 L 543.580964487968 444.3253497152483"/></g>
      <g transform="translate(-174,-30) scale(1,1)"><path fill="none" stroke="#000000" d="M 560.419035512032 444.3253497152483 L 552 424 L 543.580964487968 444.3253497152483 L 560.419035512032 444.3253497152483" stroke-miterlimit="10"/></g>
      <g transform="translate(-174,-30) scale(1,1)"><rect fill="#C0C0C0" stroke="none" x="619" y="495" width="50.919921875" height="44" opacity="0.2"/></g>
      <g transform="translate(-174,-30) scale(1,1)"><rect fill="#ffffff" stroke="none" x="612" y="488" width="50.919921875" height="44"/></g>
      <g transform="translate(-174,-30) scale(1,1)"><path fill="none" stroke="#000000" d="M 612 488 L 662.919921875 488 L 662.919921875 532 L 612 532 L 612 488 Z Z" stroke-miterlimit="10"/></g>
      <g transform="translate(-174,-30) scale(1,1)"><path fill="none" stroke="#000000" d="M 612 513 L 662.919921875 513" stroke-miterlimit="10"/></g>
      <g transform="translate(-174,-30) scale(1,1)"><path fill="none" stroke="#000000" d="M 612 523 L 662.919921875 523" stroke-miterlimit="10"/></g>
      <g transform="translate(-174,-30) scale(1,1)">
         <g><path fill="none" stroke="none"/>
            <text fill="#000000" stroke="none" font-family="Arial" font-size="13px" font-style="normal" font-weight="bold" text-decoration="none" x="622.285888671875" y="507.5">Case</text>
         </g>
      </g>
      <g transform="translate(-174,-30) scale(1,1)"><path fill="none" stroke="#000000" d="M 624 488 L 624 424" stroke-miterlimit="10"/></g>
      <g transform="translate(-174,-30) scale(1,1)"><path fill="#FFFFFF" stroke="none" d="M 632.419035512032 444.3253497152483 L 624 424 L 615.580964487968 444.3253497152483"/></g>
      <g transform="translate(-174,-30) scale(1,1)"><path fill="none" stroke="#000000" d="M 632.419035512032 444.3253497152483 L 624 424 L 615.580964487968 444.3253497152483 L 632.419035512032 444.3253497152483" stroke-miterlimit="10"/></g>
      <g transform="translate(-174,-30) scale(1,1)"><rect fill="#C0C0C0" stroke="none" x="693" y="495" width="50.919921875" height="44" opacity="0.2"/></g>
      <g transform="translate(-174,-30) scale(1,1)"><rect fill="#ffffff" stroke="none" x="686" y="488" width="50.919921875" height="44"/></g>
      <g transform="translate(-174,-30) scale(1,1)"><path fill="none" stroke="#000000" d="M 686 488 L 736.919921875 488 L 736.919921875 532 L 686 532 L 686 488 Z Z" stroke-miterlimit="10"/></g>
      <g transform="translate(-174,-30) scale(1,1)"><path fill="none" stroke="#000000" d="M 686 513 L 736.919921875 513" stroke-miterlimit="10"/></g>
      <g transform="translate(-174,-30) scale(1,1)"><path fill="none" stroke="#000000" d="M 686 523 L 736.919921875 523" stroke-miterlimit="10"/></g>
      <g transform="translate(-174,-30) scale(1,1)">
         <g><path fill="none" stroke="none"/>
            <text fill="#000000" stroke="none" font-family="Arial" font-size="13px" font-style="normal" font-weight="bold" text-decoration="none" x="698.094970703125" y="507.5">PSU</text>
         </g>
      </g>
      <g transform="translate(-174,-30) scale(1,1)"><path fill="none" stroke="#000000" d="M 720 488 L 720 416 M 720 416 A 8 8 0 0 0 712 408 L 686 408" stroke-miterlimit="10"/></g>
      <g transform="translate(-174,-30) scale(1,1)"><path fill="#FFFFFF" stroke="none" d="M 706.3253497152483 399.580964487968 L 686 408 L 706.3253497152483 416.419035512032"/></g>
      <g transform="translate(-174,-30) scale(1,1)"><path fill="none" stroke="#000000" d="M 706.3253497152483 399.580964487968 L 686 408 L 706.3253497152483 416.419035512032 L 706.3253497152483 399.580964487968" stroke-miterlimit="10"/></g>
      <g transform="translate(-174,-30) scale(1,1)"><rect fill="#C0C0C0" stroke="none" x="767" y="495" width="143" height="88" opacity="0.2"/></g>
      <g transform="translate(-174,-30) scale(1,1)"><rect fill="#ffffff" stroke="none" x="760" y="488" width="143" height="88"/></g>
      <g transform="translate(-174,-30) scale(1,1)"><path fill="none" stroke="#000000" d="M 760 488 L 903 488 L 903 576 L 760 576 L 760 488 Z Z" stroke-miterlimit="10"/></g>
      <g transform="translate(-174,-30) scale(1,1)"><path fill="none" stroke="#000000" d="M 760 513 L 903 513" stroke-miterlimit="10"/></g>
      <g transform="translate(-174,-30) scale(1,1)"><path fill="none" stroke="#000000" d="M 760 566 L 903 566" stroke-miterlimit="10"/></g>
      <g transform="translate(-174,-30) scale(1,1)">
         <g><path fill="none" stroke="none"/>
            <text fill="#000000" stroke="none" font-family="Arial" font-size="13px" font-style="normal" font-weight="bold" text-decoration="none" x="808.734130859375" y="507.5">Storage</text>
         </g>
      </g>
      <g transform="translate(-174,-30) scale(1,1)">
         <g><path fill="none" stroke="none"/>
            <text fill="#000000" stroke="none" font-family="Arial" font-size="13px" font-style="normal" font-weight="normal" text-decoration="none" x="765" y="530.5">#size: int</text>
         </g>
      </g>
      <g transform="translate(-174,-30) scale(1,1)">
         <g><path fill="none" stroke="none"/>
            <text fill="#000000" stroke="none" font-family="Arial" font-size="13px" font-style="normal" font-weight="normal" text-decoration="none" x="765" y="545.5">#readspeed: int</text>
         </g>
      </g>
      <g transform="translate(-174,-30) scale(1,1)">
         <g><path fill="none" stroke="none"/>
            <text fill="#000000" stroke="none" font-family="Arial" font-size="13px" font-style="normal" font-weight="normal" text-decoration="none" x="765" y="560.5">#writespeed: int</text>
         </g>
      </g>
      <g transform="translate(-174,-30) scale(1,1)"><path fill="none" stroke="#000000" d="M 832 488 L 832 392 M 832 392 A 8 8 0 0 0 824 384 L 686 384" stroke-miterlimit="10"/></g>
      <g transform="translate(-174,-30) scale(1,1)"><path fill="#FFFFFF" stroke="none" d="M 706.3253497152483 375.580964487968 L 686 384 L 706.3253497152483 392.419035512032"/></g>
      <g transform="translate(-174,-30) scale(1,1)"><path fill="none" stroke="#000000" d="M 706.3253497152483 375.580964487968 L 686 384 L 706.3253497152483 392.419035512032 L 706.3253497152483 375.580964487968" stroke-miterlimit="10"/></g>
      <g transform="translate(-174,-30) scale(1,1)"><rect fill="#C0C0C0" stroke="none" x="703" y="631" width="115.35289001464844" height="72" opacity="0.2"/></g>
      <g transform="translate(-174,-30) scale(1,1)"><rect fill="#ffffff" stroke="none" x="696" y="624" width="115.35289001464844" height="72"/></g>
      <g transform="translate(-174,-30) scale(1,1)"><path fill="none" stroke="#000000" d="M 696 624 L 811.3528900146484 624 L 811.3528900146484 696 L 696 696 L 696 624 Z Z" stroke-miterlimit="10"/></g>
      <g transform="translate(-174,-30) scale(1,1)"><path fill="none" stroke="#000000" d="M 696 649 L 811.3528900146484 649" stroke-miterlimit="10"/></g>
      <g transform="translate(-174,-30) scale(1,1)"><path fill="none" stroke="#000000" d="M 696 687 L 811.3528900146484 687" stroke-miterlimit="10"/></g>
      <g transform="translate(-174,-30) scale(1,1)">
         <g><path fill="none" stroke="none"/>
            <text fill="#000000" stroke="none" font-family="Arial" font-size="13px" font-style="normal" font-weight="bold" text-decoration="none" x="740.3114547729492" y="643.5">SSD</text>
         </g>
      </g>
      <g transform="translate(-174,-30) scale(1,1)">
         <g><path fill="none" stroke="none"/>
            <text fill="#000000" stroke="none" font-family="Arial" font-size="13px" font-style="normal" font-weight="normal" text-decoration="none" x="701" y="666.5">-formfactor: String</text>
         </g>
      </g>
      <g transform="translate(-174,-30) scale(1,1)">
         <g><path fill="none" stroke="none"/>
            <text fill="#000000" stroke="none" font-family="Arial" font-size="13px" font-style="normal" font-weight="normal" text-decoration="none" x="701" y="681.5">-flashtype: String</text>
         </g>
      </g>
      <g transform="translate(-174,-30) scale(1,1)"><rect fill="#C0C0C0" stroke="none" x="863" y="631" width="57.78892517089844" height="57" opacity="0.2"/></g>
      <g transform="translate(-174,-30) scale(1,1)"><rect fill="#ffffff" stroke="none" x="856" y="624" width="57.78892517089844" height="57"/></g>
      <g transform="translate(-174,-30) scale(1,1)"><path fill="none" stroke="#000000" d="M 856 624 L 913.7889251708984 624 L 913.7889251708984 681 L 856 681 L 856 624 Z Z" stroke-miterlimit="10"/></g>
      <g transform="translate(-174,-30) scale(1,1)"><path fill="none" stroke="#000000" d="M 856 649 L 913.7889251708984 649" stroke-miterlimit="10"/></g>
      <g transform="translate(-174,-30) scale(1,1)"><path fill="none" stroke="#000000" d="M 856 672 L 913.7889251708984 672" stroke-miterlimit="10"/></g>
      <g transform="translate(-174,-30) scale(1,1)">
         <g><path fill="none" stroke="none"/>
            <text fill="#000000" stroke="none" font-family="Arial" font-size="13px" font-style="normal" font-weight="bold" text-decoration="none" x="870.8121871948242" y="643.5">HDD</text>
         </g>
      </g>
      <g transform="translate(-174,-30) scale(1,1)">
         <g><path fill="none" stroke="none"/>
            <text fill="#000000" stroke="none" font-family="Arial" font-size="13px" font-style="normal" font-weight="normal" text-decoration="none" x="861" y="666.5">-rpm: int</text>
         </g>
      </g>
      <g transform="translate(-174,-30) scale(1,1)"><path fill="none" stroke="#000000" d="M 792 624 L 792 576" stroke-miterlimit="10"/></g>
      <g transform="translate(-174,-30) scale(1,1)"><path fill="#FFFFFF" stroke="none" d="M 800.419035512032 596.3253497152483 L 792 576 L 783.580964487968 596.3253497152483"/></g>
      <g transform="translate(-174,-30) scale(1,1)"><path fill="none" stroke="#000000" d="M 800.419035512032 596.3253497152483 L 792 576 L 783.580964487968 596.3253497152483 L 800.419035512032 596.3253497152483" stroke-miterlimit="10"/></g>
      <g transform="translate(-174,-30) scale(1,1)"><path fill="none" stroke="#000000" d="M 872 624 L 872 576" stroke-miterlimit="10"/></g>
      <g transform="translate(-174,-30) scale(1,1)"><path fill="#FFFFFF" stroke="none" d="M 880.419035512032 596.3253497152483 L 872 576 L 863.580964487968 596.3253497152483"/></g>
      <g transform="translate(-174,-30) scale(1,1)"><path fill="none" stroke="#000000" d="M 880.419035512032 596.3253497152483 L 872 576 L 863.580964487968 596.3253497152483 L 880.419035512032 596.3253497152483" stroke-miterlimit="10"/></g>
      <g transform="translate(-174,-30) scale(1,1)"><rect fill="#C0C0C0" stroke="none" x="759" y="145" width="255.76513671875" height="115" opacity="0.2"/></g>
      <g transform="translate(-174,-30) scale(1,1)"><rect fill="#ffffff" stroke="none" x="752" y="138" width="255.76513671875" height="115"/></g>
      <g transform="translate(-174,-30) scale(1,1)"><path fill="none" stroke="#000000" d="M 752 138 L 1007.76513671875 138 L 1007.76513671875 253 L 752 253 L 752 138 Z Z" stroke-miterlimit="10"/></g>
      <g transform="translate(-174,-30) scale(1,1)"><path fill="none" stroke="#000000" d="M 752 163 L 1007.76513671875 163" stroke-miterlimit="10"/></g>
      <g transform="translate(-174,-30) scale(1,1)"><path fill="none" stroke="#000000" d="M 752 201 L 1007.76513671875 201" stroke-miterlimit="10"/></g>
      <g transform="translate(-174,-30) scale(1,1)">
         <g><path fill="none" stroke="none"/>
            <text fill="#000000" stroke="none" font-family="Arial" font-size="13px" font-style="normal" font-weight="bold" text-decoration="none" x="853.146240234375" y="157.5">Inventory</text>
         </g>
      </g>
      <g transform="translate(-174,-30) scale(1,1)">
         <g><path fill="none" stroke="none"/>
            <text fill="#000000" stroke="none" font-family="Arial" font-size="13px" font-style="normal" font-weight="normal" text-decoration="none" x="757" y="180.5">+parts: Part[0..*] {unique}</text>
         </g>
      </g>
      <g transform="translate(-174,-30) scale(1,1)">
         <g><path fill="none" stroke="none"/>
            <text fill="#000000" stroke="none" font-family="Arial" font-size="13px" font-style="normal" font-weight="normal" text-decoration="none" x="757" y="195.5">+stock: int[0..*]</text>
         </g>
      </g>
      <g transform="translate(-174,-30) scale(1,1)">
         <g><path fill="none" stroke="none"/>
            <text fill="#000000" stroke="none" font-family="Arial" font-size="13px" font-style="normal" font-weight="normal" text-decoration="none" x="757" y="218.5">+loadPart(is: std::istream&amp;): void</text>
         </g>
      </g>
      <g transform="translate(-174,-30) scale(1,1)">
         <g><path fill="none" stroke="none"/>
            <text fill="#000000" stroke="none" font-family="Arial" font-size="13px" font-style="normal" font-weight="normal" text-decoration="none" x="757" y="233.5">+addStock(part: Part*, count: int): void</text>
         </g>
      </g>
      <g transform="translate(-174,-30) scale(1,1)">
         <g><path fill="none" stroke="none"/>
            <text fill="#000000" stroke="none" font-family="Arial" font-size="13px" font-style="normal" font-weight="normal" text-decoration="none" x="757" y="248.5">+removeStock(part: Part*, count: int): void</text>
         </g>
      </g>
      <g transform="translate(-174,-30) scale(1,1)"><rect fill="#C0C0C0" stroke="none" x="279" y="175" width="182.7607421875" height="85" opacity="0.2"/></g>
      <g transform="translate(-174,-30) scale(1,1)"><rect fill="#ffffff" stroke="none" x="272" y="168" width="182.7607421875" height="85"/></g>
      <g transform="translate(-174,-30) scale(1,1)"><path fill="none" stroke="#000000" d="M 272 168 L 454.7607421875 168 L 454.7607421875 253 L 272 253 L 272 168 Z Z" stroke-miterlimit="10"/></g>
      <g transform="translate(-174,-30) scale(1,1)"><path fill="none" stroke="#000000" d="M 272 193 L 454.7607421875 193" stroke-miterlimit="10"/></g>
      <g transform="translate(-174,-30) scale(1,1)"><path fill="none" stroke="#000000" d="M 272 216 L 454.7607421875 216" stroke-miterlimit="10"/></g>
      <g transform="translate(-174,-30) scale(1,1)">
         <g><path fill="none" stroke="none"/>
            <text fill="#000000" stroke="none" font-family="Arial" font-size="13px" font-style="normal" font-weight="bold" text-decoration="none" x="348.9267578125" y="187.5">Build</text>
         </g>
      </g>
      <g transform="translate(-174,-30) scale(1,1)">
         <g><path fill="none" stroke="none"/>
            <text fill="#000000" stroke="none" font-family="Arial" font-size="13px" font-style="normal" font-weight="normal" text-decoration="none" x="277" y="210.5">-parts: Part[7..*] {ordered}</text>
         </g>
      </g>
      <g transform="translate(-174,-30) scale(1,1)">
         <g><path fill="none" stroke="none"/>
            <text fill="#000000" stroke="none" font-family="Arial" font-size="13px" font-style="normal" font-weight="normal" text-decoration="none" x="277" y="233.5">+configurator()</text>
         </g>
      </g>
      <g transform="translate(-174,-30) scale(1,1)">
         <g><path fill="none" stroke="none"/>
            <text fill="#000000" stroke="none" font-family="Arial" font-size="13px" font-style="normal" font-weight="normal" text-decoration="none" x="277" y="248.5">+print(os: std::ostream&amp;): void</text>
         </g>
      </g>
      <g transform="translate(-174,-30) scale(1,1)"><rect fill="#C0C0C0" stroke="none" x="279" y="47" width="182.7607421875" height="70" opacity="0.2"/></g>
      <g transform="translate(-174,-30) scale(1,1)"><rect fill="#ffffff" stroke="none" x="272" y="40" width="182.7607421875" height="70"/></g>
      <g transform="translate(-174,-30) scale(1,1)"><path fill="none" stroke="#000000" d="M 272 40 L 454.7607421875 40 L 454.7607421875 110 L 272 110 L 272 40 Z Z" stroke-miterlimit="10"/></g>
      <g transform="translate(-174,-30) scale(1,1)"><path fill="none" stroke="#000000" d="M 272 65 L 454.7607421875 65" stroke-miterlimit="10"/></g>
      <g transform="translate(-174,-30) scale(1,1)"><path fill="none" stroke="#000000" d="M 272 88 L 454.7607421875 88" stroke-miterlimit="10"/></g>
      <g transform="translate(-174,-30) scale(1,1)">
         <g><path fill="none" stroke="none"/>
            <text fill="#000000" stroke="none" font-family="Arial" font-size="13px" font-style="normal" font-weight="bold" text-decoration="none" x="343.515380859375" y="59.5">Orders</text>
         </g>
      </g>
      <g transform="translate(-174,-30) scale(1,1)">
         <g><path fill="none" stroke="none"/>
            <text fill="#000000" stroke="none" font-family="Arial" font-size="13px" font-style="normal" font-weight="normal" text-decoration="none" x="277" y="82.5">-build: Build[0..*]</text>
         </g>
      </g>
      <g transform="translate(-174,-30) scale(1,1)">
         <g><path fill="none" stroke="none"/>
            <text fill="#000000" stroke="none" font-family="Arial" font-size="13px" font-style="normal" font-weight="normal" text-decoration="none" x="277" y="105.5">+print(os: std::ostream&amp;): void</text>
         </g>
      </g>
      <g transform="translate(-174,-30) scale(1,1)"><path fill="none" stroke="#000000" d="M 503 312 L 376 312 M 376 312 A 8 8 0 0 1 368 304 L 368 253" stroke-miterlimit="10"/></g>
      <g transform="translate(-174,-30) scale(1,1)"><path fill="#000000" stroke="none" d="M 372.209517756016 263.16267485762415 L 368 253 L 363.790482243984 263.16267485762415 L 368 275"/></g>
      <g transform="translate(-174,-30) scale(1,1)"><path fill="none" stroke="#000000" d="M 372.209517756016 263.16267485762415 L 368 253 L 363.790482243984 263.16267485762415 L 368 275 L 372.209517756016 263.16267485762415" stroke-miterlimit="10"/></g>
      <g transform="translate(-174,-30) scale(1,1)">
         <g><path fill="none" stroke="none"/>
            <text fill="#000000" stroke="none" font-family="Arial" font-size="13px" font-style="normal" font-weight="normal" text-decoration="none" x="369.74365234375" y="280.5">7..*</text>
         </g>
      </g>
      <g transform="translate(-174,-30) scale(1,1)"><path fill="none" stroke="#000000" d="M 686 312 L 872 312 M 872 312 A 8 8 0 0 0 880 304 L 880 253" stroke-miterlimit="10"/></g>
      <g transform="translate(-174,-30) scale(1,1)"><path fill="#000000" stroke="none" d="M 884.209517756016 263.16267485762415 L 880 253 L 875.790482243984 263.16267485762415 L 880 275"/></g>
      <g transform="translate(-174,-30) scale(1,1)"><path fill="none" stroke="#000000" d="M 884.209517756016 263.16267485762415 L 880 253 L 875.790482243984 263.16267485762415 L 880 275 L 884.209517756016 263.16267485762415" stroke-miterlimit="10"/></g>
      <g transform="translate(-174,-30) scale(1,1)">
         <g><path fill="none" stroke="none"/>
            <text fill="#000000" stroke="none" font-family="Arial" font-size="13px" font-style="normal" font-weight="normal" text-decoration="none" x="881.74365234375" y="280.5">0..*</text>
         </g>
      </g>
      <g transform="translate(-174,-30) scale(1,1)"><path fill="none" stroke="#000000" d="M 368 168 L 368 110" stroke-miterlimit="10"/></g>
      <g transform="translate(-174,-30) scale(1,1)"><path fill="#000000" stroke="none" d="M 372.209517756016 120.16267485762415 L 368 110 L 363.790482243984 120.16267485762415 L 368 132"/></g>
      <g transform="translate(-174,-30) scale(1,1)"><path fill="none" stroke="#000000" d="M 372.209517756016 120.16267485762415 L 368 110 L 363.790482243984 120.16267485762415 L 368 132 L 372.209517756016 120.16267485762415" stroke-miterlimit="10"/></g>
      <g transform="translate(-174,-30) scale(1,1)">
         <g><path fill="none" stroke="none"/>
            <text fill="#000000" stroke="none" font-family="Arial" font-size="13px" font-style="normal" font-weight="normal" text-decoration="none" x="369.74365234375" y="137.5">0..*</text>
         </g>
      </g>
      <g transform="translate(-174,-30) scale(1,1)"><path fill="none" stroke="#000000" d="M 456 87 L 640 112 L 751 151" stroke-miterlimit="10"/></g>
   </g>
</svg>
